<svg xmlns="http://www.w3.org/2000/svg" version="1.1" xmlns:xlink="http://www.w3.org/1999/xlink" xmlns:svgjs="http://svgjs.dev/svgjs" width="128" height="128" viewBox="0 0 128 128"><g transform="matrix(0.8046875,0,0,0.8046875,12.42176948511861,17.520873679494542)"><svg viewBox="0 0 96 88" data-background-color="#151938" preserveAspectRatio="xMidYMid meet" height="117" width="128" xmlns="http://www.w3.org/2000/svg" xmlns:xlink="http://www.w3.org/1999/xlink"><g id="tight-bounds" transform="matrix(1,0,0,1,0.31049910035437733,0.3841607071396993)"><svg viewBox="0 0 95.481 87.23146650363611" height="87.23146650363611" width="95.481"><g><svg viewBox="0 0 95.481 87.23146650363611" height="87.23146650363611" width="95.481"><g><svg viewBox="0 0 95.481 87.23146650363611" height="87.23146650363611" width="95.481"><g id="textblocktransform"><svg viewBox="0 0 95.481 87.23146650363611" height="87.23146650363611" width="95.481" id="textblock"><g><svg viewBox="0 0 95.481 87.23146650363611" height="87.23146650363611" width="95.481"><g><svg viewBox="0 0 95.481 87.23146650363611" height="87.23146650363611" width="95.481"><g><svg xmlns="http://www.w3.org/2000/svg" xmlns:xlink="http://www.w3.org/1999/xlink" version="1.1" x="0" y="0" viewBox="5.00001543205283 8.887999997996864 89.99998456794717 82.22400937533803" enable-background="new 0 0 100 100" xml:space="preserve" height="87.23146650363611" width="95.481" class="icon-icon-0" data-fill-palette-color="accent" id="icon-0"><g fill="#ff5ea2" data-fill-palette-color="accent"><path d="M83.413 30.769V47.524C83.413 48.492 83.02 49.423 82.335 50.108L42.408 90.044A3.64 3.64 0 0 1 39.824 91.112 3.65 3.65 0 0 1 37.24 90.044L6.068 58.873A3.66 3.66 0 0 1 6.068 53.705L45.923 13.859C45.95 13.832 45.969 13.804 46.005 13.777 46.087 13.695 46.178 13.613 46.261 13.53 46.27 13.53 46.279 13.521 46.279 13.521L46.58 13.302C46.681 13.238 46.781 13.174 46.891 13.119A3.7 3.7 0 0 1 48.589 12.699H65.754A3.66 3.66 0 0 1 69.406 16.351 3.657 3.657 0 0 1 65.754 20.003H50.104L13.82 56.289 39.824 82.293 76.109 46.017V30.769A3.65 3.65 0 0 1 79.761 27.117 3.65 3.65 0 0 1 83.413 30.769" fill="#ff5ea2" data-fill-palette-color="accent"></path></g><g fill="#ff5ea2" data-fill-palette-color="accent"><circle cx="64.838" cy="31.683" r="4.6" fill="#ff5ea2" data-fill-palette-color="accent"></circle></g><g fill="#ff5ea2" data-fill-palette-color="accent"><path d="M30.813 59.099A3.65 3.65 0 0 1 28.231 52.865L45.567 35.529A3.65 3.65 0 0 1 50.731 35.529 3.65 3.65 0 0 1 50.731 40.693L33.395 58.029A3.63 3.63 0 0 1 30.813 59.099" fill="#ff5ea2" data-fill-palette-color="accent"></path></g><g fill="#ff5ea2" data-fill-palette-color="accent"><path d="M41.063 69.349A3.65 3.65 0 0 1 38.481 63.115L55.817 45.779A3.65 3.65 0 0 1 60.981 45.779 3.65 3.65 0 0 1 60.981 50.943L43.645 68.279A3.64 3.64 0 0 1 41.063 69.349" fill="#ff5ea2" data-fill-palette-color="accent"></path></g><g fill="#ff5ea2" data-fill-palette-color="accent"><path d="M73.541 26.632A3.65 3.65 0 0 1 70.959 20.398L81.399 9.958A3.65 3.65 0 0 1 83.981 8.888H91.348A3.652 3.652 0 1 1 91.348 16.192H85.494L76.123 25.562A3.64 3.64 0 0 1 73.541 26.632" fill="#ff5ea2" data-fill-palette-color="accent"></path></g></svg></g></svg></g></svg></g></svg></g></svg></g></svg></g><defs></defs></svg><rect width="95.481" height="87.23146650363611" fill="none" stroke="none" visibility="hidden"></rect></g></svg></g></svg>