<svg xmlns="http://www.w3.org/2000/svg" version="1.1" xmlns:xlink="http://www.w3.org/1999/xlink" xmlns:svgjs="http://svgjs.dev/svgjs" width="1500" height="480" viewBox="0 0 1500 480"><g transform="matrix(1,0,0,1,-1.299430817924872,1.3573026046545067)"><svg viewBox="0 0 384 123" data-background-color="#151938" preserveAspectRatio="xMidYMid meet" height="480" width="1500" xmlns="http://www.w3.org/2000/svg" xmlns:xlink="http://www.w3.org/1999/xlink"><g id="tight-bounds" transform="matrix(1,0,0,1,0.3326542893887563,0.49264386068168164)"><svg viewBox="0 0 382.3963169892081 122.1127169629091" height="122.1127169629091" width="382.3963169892081"><g><svg viewBox="0 0 382.3963169892081 122.1127169629091" height="122.1127169629091" width="382.3963169892081"><g><svg viewBox="0 0 382.3963169892081 122.1127169629091" height="122.1127169629091" width="382.3963169892081"><g id="textblocktransform"><svg viewBox="0 0 382.3963169892081 122.1127169629091" height="122.1127169629091" width="382.3963169892081" id="textblock"><g><svg viewBox="0 0 382.3963169892081 80.01745454545456" height="80.01745454545456" width="382.3963169892081"><g><svg><g></g><g></g></svg></g><g><svg><g><svg></svg></g><g></g></svg></g><g id="text-0"><svg viewBox="0 0 382.3963169892081 80.01745454545456" height="80.01745454545456" width="382.3963169892081"><g transform="matrix(1,0,0,1,0,0)"><svg width="280.92065340909096" viewBox="3.16 -36.36 127.66 36.36" height="80.01745454545456" data-palette-color="#ffffff"><path d="M16.05 0L16.05 0 3.16 0 3.16-36.36 16.16-36.36Q21.64-36.36 25.6-34.19 29.56-32.01 31.7-27.95 33.84-23.88 33.84-18.22L33.84-18.22Q33.84-12.54 31.7-8.45 29.56-4.37 25.58-2.18 21.59 0 16.05 0ZM10.85-29.78L10.85-6.59 15.73-6.59Q19.14-6.59 21.48-7.8 23.81-9.02 24.99-11.59 26.17-14.15 26.17-18.22L26.17-18.22Q26.17-22.25 24.99-24.8 23.81-27.36 21.48-28.57 19.16-29.78 15.75-29.78L15.75-29.78 10.85-29.78ZM64.1 0L39.52 0 39.52-36.36 64.02-36.36 64.02-30.02 47.21-30.02 47.21-21.36 62.76-21.36 62.76-15.02 47.21-15.02 47.21-6.34 64.1-6.34 64.1 0ZM85.54-28.05L76.42 0 68.18 0 80.73-36.36 90.64-36.36 103.17 0 94.93 0 85.83-28.05 85.54-28.05ZM75.9-8.29L75.9-14.29 95.36-14.29 95.36-8.29 75.9-8.29ZM130.82 0L107.54 0 107.54-36.36 115.23-36.36 115.23-6.34 130.82-6.34 130.82 0Z" opacity="1" transform="matrix(1,0,0,1,0,0)" fill="#ffffff" class="wordmark-text-0" data-fill-palette-color="primary"></path></svg></g><g><svg xmlns="http://www.w3.org/2000/svg" xmlns:xlink="http://www.w3.org/1999/xlink" version="1.1" x="294.81156250000004" y="0" viewBox="5.00001543205283 8.887999997996864 89.99998456794717 82.22400937533803" enable-background="new 0 0 100 100" xml:space="preserve" height="80.01745454545456" width="87.58475448920807" class="icon-dxe-0" data-fill-palette-color="accent" id="dxe-0"><g fill="#ff5ea2" data-fill-palette-color="accent"><path d="M83.413 30.769V47.524C83.413 48.492 83.02 49.423 82.335 50.108L42.408 90.044A3.64 3.64 0 0 1 39.824 91.112 3.65 3.65 0 0 1 37.24 90.044L6.068 58.873A3.66 3.66 0 0 1 6.068 53.705L45.923 13.859C45.95 13.832 45.969 13.804 46.005 13.777 46.087 13.695 46.178 13.613 46.261 13.53 46.27 13.53 46.279 13.521 46.279 13.521L46.58 13.302C46.681 13.238 46.781 13.174 46.891 13.119A3.7 3.7 0 0 1 48.589 12.699H65.754A3.66 3.66 0 0 1 69.406 16.351 3.657 3.657 0 0 1 65.754 20.003H50.104L13.82 56.289 39.824 82.293 76.109 46.017V30.769A3.65 3.65 0 0 1 79.761 27.117 3.65 3.65 0 0 1 83.413 30.769" fill="#ff5ea2" data-fill-palette-color="accent"></path></g><g fill="#ff5ea2" data-fill-palette-color="accent"><circle cx="64.838" cy="31.683" r="4.6" fill="#ff5ea2" data-fill-palette-color="accent"></circle></g><g fill="#ff5ea2" data-fill-palette-color="accent"><path d="M30.813 59.099A3.65 3.65 0 0 1 28.231 52.865L45.567 35.529A3.65 3.65 0 0 1 50.731 35.529 3.65 3.65 0 0 1 50.731 40.693L33.395 58.029A3.63 3.63 0 0 1 30.813 59.099" fill="#ff5ea2" data-fill-palette-color="accent"></path></g><g fill="#ff5ea2" data-fill-palette-color="accent"><path d="M41.063 69.349A3.65 3.65 0 0 1 38.481 63.115L55.817 45.779A3.65 3.65 0 0 1 60.981 45.779 3.65 3.65 0 0 1 60.981 50.943L43.645 68.279A3.64 3.64 0 0 1 41.063 69.349" fill="#ff5ea2" data-fill-palette-color="accent"></path></g><g fill="#ff5ea2" data-fill-palette-color="accent"><path d="M73.541 26.632A3.65 3.65 0 0 1 70.959 20.398L81.399 9.958A3.65 3.65 0 0 1 83.981 8.888H91.348A3.652 3.652 0 1 1 91.348 16.192H85.494L76.123 25.562A3.64 3.64 0 0 1 73.541 26.632" fill="#ff5ea2" data-fill-palette-color="accent"></path></g></svg></g></svg></g></svg></g><g transform="matrix(1,0,0,1,0,98.90765514472729)"><svg viewBox="0 0 382.3963169892081 23.205061818181818" height="23.205061818181818" width="382.3963169892081"><g transform="matrix(1,0,0,1,0,0)"><svg width="382.3963169892081" viewBox="2.35 -35.7 599.84 36.400000000000006" height="23.205061818181818" data-palette-color="#ff5ea2"><path d="M16.35 0L2.35 0 2.35-4.8 7.05-4.8 7.05-30.2 2.35-30.2 2.35-35 16.35-35Q23.35-35 27.08-31.45 30.8-27.9 30.8-20.75L30.8-20.75 30.8-14.2Q30.8-7.05 27.08-3.53 23.35 0 16.35 0L16.35 0ZM12.5-30.05L12.5-4.9 16.4-4.9Q20.95-4.9 23.15-7.2 25.35-9.5 25.35-14.05L25.35-14.05 25.35-20.95Q25.35-25.55 23.15-27.8 20.95-30.05 16.4-30.05L16.4-30.05 12.5-30.05ZM51.57 0L46.17 0 46.17-35 51.57-35 51.57 0ZM81.14 0.7L81.14 0.7Q74.74 0.7 70.99-2.93 67.24-6.55 67.24-13.4L67.24-13.4 67.24-21.6Q67.24-28.45 70.99-32.08 74.74-35.7 81.14-35.7L81.14-35.7Q87.44-35.7 90.86-32.2 94.29-28.7 94.29-22.65L94.29-22.65 94.29-22.35 88.94-22.35 88.94-22.8Q88.94-26.35 87.01-28.6 85.09-30.85 81.14-30.85L81.14-30.85Q77.14-30.85 74.89-28.43 72.64-26 72.64-21.7L72.64-21.7 72.64-13.3Q72.64-9.05 74.89-6.6 77.14-4.15 81.14-4.15L81.14-4.15Q85.09-4.15 87.01-6.43 88.94-8.7 88.94-12.2L88.94-12.2 88.94-13.05 94.29-13.05 94.29-12.35Q94.29-6.3 90.86-2.8 87.44 0.7 81.14 0.7ZM122.71 0.7L122.71 0.7Q116.26 0.7 112.46-2.93 108.66-6.55 108.66-13.4L108.66-13.4 108.66-21.6Q108.66-28.45 112.46-32.08 116.26-35.7 122.71-35.7L122.71-35.7Q129.16-35.7 132.98-32.08 136.81-28.45 136.81-21.6L136.81-21.6 136.81-13.4Q136.81-6.55 132.98-2.93 129.16 0.7 122.71 0.7ZM122.71-4.15L122.71-4.15Q126.86-4.15 129.11-6.58 131.36-9 131.36-13.2L131.36-13.2 131.36-21.8Q131.36-26 129.11-28.43 126.86-30.85 122.71-30.85L122.71-30.85Q118.66-30.85 116.36-28.43 114.06-26 114.06-21.8L114.06-21.8 114.06-13.2Q114.06-9 116.36-6.58 118.66-4.15 122.71-4.15ZM165.58 0.7L165.58 0.7Q161.43 0.7 158.45-0.8 155.48-2.3 153.85-5.13 152.23-7.95 152.23-12L152.23-12 152.23-35 157.68-35 157.68-11.85Q157.68-8.15 159.73-6.15 161.78-4.15 165.58-4.15L165.58-4.15Q169.38-4.15 171.43-6.15 173.48-8.15 173.48-11.85L173.48-11.85 173.48-35 178.88-35 178.88-12Q178.88-7.95 177.28-5.13 175.68-2.3 172.68-0.8 169.68 0.7 165.58 0.7ZM200.55 0L195.2 0 195.2-35 205.6-35 215.1-3.6 215.9-3.6 215.9-35 221.25-35 221.25 0 210.85 0 201.35-31.45 200.55-31.45 200.55 0ZM251.56 0L246.16 0 246.16-30.1 235.41-30.1 235.41-35 262.31-35 262.31-30.1 251.56-30.1 251.56 0ZM317.6 0L305.55 0Q302.55 0 300.23-1.1 297.9-2.2 296.58-4.3 295.25-6.4 295.25-9.35L295.25-9.35Q295.25-11.55 296.05-13.15 296.85-14.75 298.23-15.83 299.6-16.9 301.2-17.4L301.2-17.4 301.2-18.05Q298.8-18.8 297.15-20.65 295.5-22.5 295.5-25.65L295.5-25.65Q295.5-28.7 296.88-30.78 298.25-32.85 300.55-33.93 302.85-35 305.75-35L305.75-35 311.65-35 311.65-30.65 306.6-30.65Q304.1-30.65 302.4-29.33 300.7-28 300.7-25.25L300.7-25.25Q300.7-23.35 301.53-22.18 302.35-21 303.68-20.43 305-19.85 306.6-19.85L306.6-19.85 312.45-19.85 312.45-24.8 317.6-24.8 317.6-19.85 322.35-19.85 322.35-15.5 317.6-15.5 317.6 0ZM306.4-4.35L306.4-4.35 312.45-4.35 312.45-15.5 306.4-15.5Q303.9-15.5 302.15-14.13 300.4-12.75 300.4-9.9L300.4-9.9Q300.4-7.05 302.2-5.7 304-4.35 306.4-4.35ZM363.69 0L358.29 0 358.29-35 372.19-35Q375.39-35 377.92-33.73 380.44-32.45 381.87-30.13 383.29-27.8 383.29-24.55L383.29-24.55 383.29-23.9Q383.29-20.65 381.82-18.3 380.34-15.95 377.84-14.7 375.34-13.45 372.19-13.45L372.19-13.45 363.69-13.45 363.69 0ZM363.69-30.1L363.69-18.35 371.64-18.35Q374.49-18.35 376.19-19.85 377.89-21.35 377.89-23.95L377.89-23.95 377.89-24.45Q377.89-27.1 376.19-28.6 374.49-30.1 371.64-30.1L371.64-30.1 363.69-30.1ZM403.11 0L397.71 0 397.71-35 412.41-35Q415.66-35 418.13-33.88 420.61-32.75 421.98-30.65 423.36-28.55 423.36-25.65L423.36-25.65 423.36-25.1Q423.36-21.8 421.78-19.83 420.21-17.85 417.96-17.05L417.96-17.05 417.96-16.25Q419.86-16.15 421.01-14.98 422.16-13.8 422.16-11.6L422.16-11.6 422.16 0 416.71 0 416.71-10.85Q416.71-12.2 416.01-13 415.31-13.8 413.76-13.8L413.76-13.8 403.11-13.8 403.11 0ZM403.11-30.1L403.11-18.7 411.81-18.7Q414.71-18.7 416.31-20.18 417.91-21.65 417.91-24.2L417.91-24.2 417.91-24.6Q417.91-27.15 416.33-28.63 414.76-30.1 411.81-30.1L411.81-30.1 403.11-30.1ZM451.73 0.7L451.73 0.7Q445.28 0.7 441.48-2.93 437.68-6.55 437.68-13.4L437.68-13.4 437.68-21.6Q437.68-28.45 441.48-32.08 445.28-35.7 451.73-35.7L451.73-35.7Q458.18-35.7 462-32.08 465.83-28.45 465.83-21.6L465.83-21.6 465.83-13.4Q465.83-6.55 462-2.93 458.18 0.7 451.73 0.7ZM451.73-4.15L451.73-4.15Q455.88-4.15 458.13-6.58 460.38-9 460.38-13.2L460.38-13.2 460.38-21.8Q460.38-26 458.13-28.43 455.88-30.85 451.73-30.85L451.73-30.85Q447.68-30.85 445.38-28.43 443.08-26 443.08-21.8L443.08-21.8 443.08-13.2Q443.08-9 445.38-6.58 447.68-4.15 451.73-4.15ZM486.75 0L481.5 0 481.5-35 491.65-35 499.3-3.6 500.1-3.6 507.75-35 517.9-35 517.9 0 512.65 0 512.65-31.2 511.85-31.2 504.25 0 495.15 0 487.55-31.2 486.75-31.2 486.75 0ZM547.62 0.7L547.62 0.7Q541.17 0.7 537.37-2.93 533.57-6.55 533.57-13.4L533.57-13.4 533.57-21.6Q533.57-28.45 537.37-32.08 541.17-35.7 547.62-35.7L547.62-35.7Q554.07-35.7 557.89-32.08 561.72-28.45 561.72-21.6L561.72-21.6 561.72-13.4Q561.72-6.55 557.89-2.93 554.07 0.7 547.62 0.7ZM547.62-4.15L547.62-4.15Q551.77-4.15 554.02-6.58 556.27-9 556.27-13.2L556.27-13.2 556.27-21.8Q556.27-26 554.02-28.43 551.77-30.85 547.62-30.85L547.62-30.85Q543.57-30.85 541.27-28.43 538.97-26 538.97-21.8L538.97-21.8 538.97-13.2Q538.97-9 541.27-6.58 543.57-4.15 547.62-4.15ZM589.29 0.7L589.29 0.7Q585.34 0.7 582.29-0.7 579.24-2.1 577.51-4.83 575.79-7.55 575.79-11.45L575.79-11.45 575.79-12.7 581.14-12.7 581.14-11.45Q581.14-7.75 583.36-5.9 585.59-4.05 589.29-4.05L589.29-4.05Q593.04-4.05 594.94-5.63 596.84-7.2 596.84-9.7L596.84-9.7Q596.84-11.35 595.94-12.4 595.04-13.45 593.39-14.08 591.74-14.7 589.44-15.25L589.44-15.25 587.59-15.7Q584.24-16.5 581.76-17.68 579.29-18.85 577.94-20.8 576.59-22.75 576.59-25.8L576.59-25.8Q576.59-28.9 578.11-31.1 579.64-33.3 582.34-34.5 585.04-35.7 588.69-35.7L588.69-35.7Q592.34-35.7 595.21-34.45 598.09-33.2 599.74-30.75 601.39-28.3 601.39-24.6L601.39-24.6 601.39-22.8 596.04-22.8 596.04-24.6Q596.04-26.85 595.11-28.25 594.19-29.65 592.54-30.3 590.89-30.95 588.69-30.95L588.69-30.95Q585.49-30.95 583.71-29.63 581.94-28.3 581.94-25.95L581.94-25.95Q581.94-24.35 582.71-23.33 583.49-22.3 584.99-21.65 586.49-21 588.74-20.5L588.74-20.5 590.59-20.05Q593.99-19.3 596.59-18.13 599.19-16.95 600.69-14.95 602.19-12.95 602.19-9.8L602.19-9.8Q602.19-6.65 600.61-4.3 599.04-1.95 596.14-0.63 593.24 0.7 589.29 0.7Z" opacity="1" transform="matrix(1,0,0,1,0,0)" fill="#ff5ea2" class="slogan-text-1" data-fill-palette-color="secondary" id="text-1"></path></svg></g></svg></g></svg></g></svg></g></svg></g><defs></defs></svg><rect width="382.3963169892081" height="122.1127169629091" fill="none" stroke="none" visibility="hidden"></rect></g></svg></g></svg>